<?xml version="1.0" encoding="utf-8"?>
<!-- Generator: Adobe Illustrator 25.0.0, SVG Export Plug-In . SVG Version: 6.00 Build 0)  -->
<svg version="1.1" id="Ebene_1" xmlns="http://www.w3.org/2000/svg" xmlns:xlink="http://www.w3.org/1999/xlink" x="0px" y="0px"
	 width="452px" height="100%" preserveAspectRatio="none" viewBox="0 0 452 175" style="enable-background:new 0 0 452 175;" xml:space="preserve">
<style type="text/css">
	.st0{fill-rule:evenodd;clip-rule:evenodd;fill:#FFFFFF;stroke:#000000;stroke-width:2;stroke-miterlimit:10;}
</style>
<polygon id="new" class="st0" vector-effect="non-scaling-stroke" points="447,14 447,161 445,161 445,165 443,165 443,167 441,167 441,169 439,169 439,171 435,171 
	435,173 29,173 29,171 25,171 25,169 23,169 23,167 21,167 21,165 19,165 19,161 17,161 17,108 15,108 15,106 13,106 13,104 11,104 
	11,102 9,102 9,100 7,100 7,98 5,98 5,94 17,94 17,14 19,14 19,10 21,10 21,8 23,8 23,6 25,6 25,4 29,4 29,2 435,2 435,4 439,4 
	439,6 441,6 441,8 443,8 443,10 445,10 445,14 "/>
</svg>
